HIERARCHY
ROOT joint_Root
{
  OFFSET 0 0 0
  CHANNELS 6 Xposition Yposition Zposition Zrotation Xrotation Yrotation
  JOINT Hips
  {
    OFFSET 0 93.9241 -3
    CHANNELS 6 Xposition Yposition Zposition Zrotation Xrotation Yrotation
    JOINT Spine
    {
      OFFSET 15.7357 0 0
      CHANNELS 6 Xposition Yposition Zposition Zrotation Xrotation Yrotation
      JOINT Chest
      {
        OFFSET 8.98455 -0.406207 0
        CHANNELS 6 Xposition Yposition Zposition Zrotation Xrotation Yrotation
        JOINT Neck
        {
          OFFSET 16.3773 0 0
          CHANNELS 6 Xposition Yposition Zposition Zrotation Xrotation Yrotation
          JOINT Head
          {
            OFFSET 6.45672 0 0
            CHANNELS 6 Xposition Yposition Zposition Zrotation Xrotation Yrotation
            End Site
            {
              OFFSET 0 0 0
            }
          }
        }
        JOINT Shoulder_L
        {
          OFFSET 12.9942 -0.242716 4.98039
          CHANNELS 6 Xposition Yposition Zposition Zrotation Xrotation Yrotation
          JOINT UpperArm_L
          {
            OFFSET 5.34809 0 0
            CHANNELS 6 Xposition Yposition Zposition Zrotation Xrotation Yrotation
            JOINT LowerArm_L
            {
              OFFSET 24.3286 1.87007e-05 0
              CHANNELS 6 Xposition Yposition Zposition Zrotation Xrotation Yrotation
              JOINT Hand_L
              {
                OFFSET 22.2916 0 0
                CHANNELS 6 Xposition Yposition Zposition Zrotation Xrotation Yrotation
                End Site
                {
                  OFFSET 0 0 0
                }
              }
            }
          }
        }
        JOINT Shoulder_R
        {
          OFFSET 12.9945 -0.242716 -4.98039
          CHANNELS 6 Xposition Yposition Zposition Zrotation Xrotation Yrotation
          JOINT UpperArm_R
          {
            OFFSET -5.34813 0 0
            CHANNELS 6 Xposition Yposition Zposition Zrotation Xrotation Yrotation
            JOINT LowerArm_R
            {
              OFFSET -24.3289 0.000322201 0
              CHANNELS 6 Xposition Yposition Zposition Zrotation Xrotation Yrotation
              JOINT Hand_R
              {
                OFFSET -22.2915 -0.000108084 0
                CHANNELS 6 Xposition Yposition Zposition Zrotation Xrotation Yrotation
                End Site
                {
                  OFFSET 0 0 0
                }
              }
            }
          }
        }
      }
    }
    JOINT UpperLeg_L
    {
      OFFSET -2.19248 -6.46944 0
      CHANNELS 6 Xposition Yposition Zposition Zrotation Xrotation Yrotation
      JOINT LowerLeg_L
      {
        OFFSET 39.0811 0 -1.23785e-05
        CHANNELS 6 Xposition Yposition Zposition Zrotation Xrotation Yrotation
        JOINT Foot_L
        {
          OFFSET 40.9854 0 -1.26872e-05
          CHANNELS 6 Xposition Yposition Zposition Zrotation Xrotation Yrotation
          JOINT Toes_L
          {
            OFFSET 11.7543 0 0
            CHANNELS 6 Xposition Yposition Zposition Zrotation Xrotation Yrotation
            End Site
            {
              OFFSET 0 0 0
            }
          }
        }
      }
    }
    JOINT UpperLeg_R
    {
      OFFSET -2.19251 6.46944 0
      CHANNELS 6 Xposition Yposition Zposition Zrotation Xrotation Yrotation
      JOINT LowerLeg_R
      {
        OFFSET -39.0811 -0.00228153 -0.0401928
        CHANNELS 6 Xposition Yposition Zposition Zrotation Xrotation Yrotation
        JOINT Foot_R
        {
          OFFSET -40.9854 0 0
          CHANNELS 6 Xposition Yposition Zposition Zrotation Xrotation Yrotation
          JOINT Toes_R
          {
            OFFSET -11.7543 0 0
            CHANNELS 6 Xposition Yposition Zposition Zrotation Xrotation Yrotation
            End Site
            {
              OFFSET 0 0 0
            }
          }
        }
      }
    }
  }
}
MOTION
Frames:	4
Frame Time:	0.0333333
0 0 0 0 0 -0 -2.66803 86.1469 39.913 85.4251 0.86372 -2.00866 15.7357 5.1072e-06 -5.51765e-07 119.144 84.3384 -117.308 8.98455 -0.406207 -4.3199e-07 2.04847 5.41909 3.57348 16.3773 -1.3905e-06 -6.99897e-07 -15.7238 0.387831 -3.40459 6.45672 -1.25837e-06 -1.02172e-07 -2.6231 -6.97441 -3.61589 12.9942 -0.242716 4.98039 -90.5796 2.67266 -92.7453 5.34809 -7.22636e-06 -6.2814e-07 -77.5104 2.41576 22.1885 24.3286 1.87007e-05 4.90208e-06 21.4417 -11.0765 -116.069 22.2916 -9.88446e-07 4.63217e-06 39.966 5.2681 0.885085 12.9945 -0.242716 -4.98039 89.7085 5.58658 -102.012 -5.34813 -1.25947e-06 -3.79883e-06 -68.9432 11.2853 5.05442 -24.3289 0.000322201 -8.65921e-06 20.5978 -3.7386 -99.8372 -22.2915 -0.000108084 -4.47941e-06 54.1211 5.6817 -20.1648 -2.19248 -6.46944 -1.22534e-07 -176.367 6.59923 -23.974 39.0811 -6.73843e-06 -1.23785e-05 -0.593151 0.126195 77.1233 40.9854 -6.48686e-06 -1.26872e-05 8.597 -4.95815 -37.9934 11.7543 -2.30145e-07 3.05095e-06 0.440825 -0.5343 -21.6255 -2.19251 6.46944 -1.45247e-06 -168.786 5.3175 164.182 -39.0811 -0.00228153 -0.0401928 -0.232199 0.287397 44.094 -40.9854 7.72618e-06 5.99936e-06 2.46794 -10.2606 -81.4922 -11.7543 -5.6619e-06 -5.58687e-06 0.0734381 -0.0767704 -17.1653 
0 0 0 0 0 -0 -2.11849 88.2229 46.4087 88.5068 -0.735849 -3.42881 15.7357 5.1072e-06 -5.51765e-07 129.89 84.6384 -129.412 8.98455 -0.406207 -4.3199e-07 0.440103 6.84425 0.928945 16.3773 -1.3905e-06 -6.99897e-07 -13.5822 0.358204 -2.97254 6.45672 -1.25837e-06 -1.02172e-07 0.204115 -8.2881 -3.15612 12.9942 -0.242716 4.98039 -89.811 -0.695768 -89.9343 5.34809 -7.22636e-06 -6.2814e-07 -72.2952 -5.4528 33.1613 24.3286 1.87007e-05 4.90208e-06 26.9654 -13.7742 -115.078 22.2916 -9.88446e-07 4.63217e-06 42.8707 5.28032 0.592793 12.9945 -0.242716 -4.98039 89.941 2.35229 -103.575 -5.34813 -1.25947e-06 -3.79883e-06 -69.9894 12.1003 -10.0203 -24.3289 0.000322201 -8.65921e-06 23.6344 -6.66282 -104.844 -22.2915 -0.000108084 -4.47941e-06 50.4887 5.67823 -18.8083 -2.19248 -6.46944 -1.22534e-07 179.609 7.92021 -27.9609 39.0811 -6.73843e-06 -1.23785e-05 -0.481277 0.141591 72.5897 40.9854 -6.48686e-06 -1.26872e-05 7.8009 -9.09531 -42.6584 11.7543 -2.30145e-07 3.05095e-06 0.451829 -0.548923 -21.7588 -2.19251 6.46944 -1.45247e-06 -172.537 3.66008 171.845 -39.0811 -0.00228153 -0.0401928 0.106124 -0.107558 34.8142 -40.9854 7.72618e-06 5.99936e-06 3.98726 -10.189 -77.635 -11.7543 -5.6619e-06 -5.58687e-06 -0.151611 -0.788737 -19.3825 
0 0 0 0 0 -0 -1.33646 91.1319 52.8937 91.6319 -2.81198 -5.53479 15.7357 5.1072e-06 -5.51765e-07 146.82 84.4324 -147.922 8.98455 -0.406207 -4.3199e-07 -1.58613 9.40743 -2.07509 16.3773 -1.3905e-06 -6.99897e-07 -11.4545 -0.235454 -2.60561 6.45672 -1.25837e-06 -1.02172e-07 3.06647 -10.4208 -2.43431 12.9942 -0.242716 4.98039 -88.598 -4.31094 -86.9757 5.34809 -7.22636e-06 -6.2814e-07 -62.9838 -10.6768 40.3341 24.3286 1.87007e-05 4.90208e-06 29.4846 -15.3145 -115.038 22.2916 -9.88446e-07 4.63217e-06 43.1958 5.30723 -0.167377 12.9945 -0.242716 -4.98039 90.0317 -2.13416 -104.151 -5.34813 -1.25947e-06 -3.79883e-06 -72.1345 9.49431 -22.0585 -24.3289 0.000322201 -8.65921e-06 23.7531 -10.3601 -112.234 -22.2915 -0.000108084 -4.47941e-06 48.2485 5.65536 -15.4683 -2.19248 -6.46944 -1.22534e-07 175.897 8.53056 -30.2033 39.0811 -6.73843e-06 -1.23785e-05 -0.333931 0.169038 62.0797 40.9854 -6.48686e-06 -1.26872e-05 8.62357 -12.3684 -44.213 11.7543 -2.30145e-07 3.05095e-06 0.451472 -0.548457 -21.7545 -2.19251 6.46944 -1.45247e-06 -176.644 0.166638 176.693 -39.0811 -0.00228153 -0.0401928 0.0376878 -0.032969 26.3085 -40.9854 7.72618e-06 5.99936e-06 3.96241 -11.0776 -63.7961 -11.7543 -5.6619e-06 -5.58687e-06 -0.564173 -2.7812 -28.981 
0 0 0 0 0 -0 -0.67895 93.9692 59.2753 93.1265 -4.61458 -7.98517 15.7357 5.1072e-06 -5.51765e-07 162.826 83.84 -164.789 8.98455 -0.406207 -4.3199e-07 -3.96276 11.9633 -3.52295 16.3773 -1.3905e-06 -6.99897e-07 -9.2676 -1.08627 -2.69573 6.45672 -1.25837e-06 -1.02172e-07 6.07633 -12.2464 -1.63584 12.9942 -0.242716 4.98039 -87.1552 -7.93308 -85.2029 5.34809 -7.22636e-06 -6.2814e-07 -55.7461 -13.5666 45.0556 24.3286 1.87007e-05 4.90208e-06 29.2616 -14.986 -114.774 22.2916 -9.88446e-07 4.63217e-06 48.0346 5.20005 2.65026 12.9945 -0.242716 -4.98039 90.1948 -6.35668 -103.246 -5.34813 -1.25947e-06 -3.79883e-06 -73.6755 5.81538 -31.5465 -24.3289 0.000322201 -8.65921e-06 19.5422 -11.7355 -119.815 -22.2915 -0.000108084 -4.47941e-06 46.7035 5.61281 -12.1205 -2.19248 -6.46944 -1.22534e-07 174.702 8.87763 -30.7472 39.0811 -6.73843e-06 -1.23785e-05 -0.179825 0.156705 47.6501 40.9854 -6.48686e-06 -1.26872e-05 9.06434 -11.52 -44.4824 11.7543 -2.30145e-07 3.05095e-06 0.469783 -0.57299 -21.9774 -2.19251 6.46944 -1.45247e-06 -179.374 1.5131 178.779 -39.0811 -0.00228153 -0.0401928 0.00196112 0.028212 20.1351 -40.9854 7.72618e-06 5.99936e-06 8.67736 -8.89931 -46.4439 -11.7543 -5.6619e-06 -5.58687e-06 2.20157 -3.44106 -39.4123 
